<?xml version="1.0" encoding="utf-8"?>
<!-- Generator: Adobe Illustrator 16.0.0, SVG Export Plug-In . SVG Version: 6.00 Build 0)  -->
<!DOCTYPE svg PUBLIC "-//W3C//DTD SVG 1.1//EN" "http://www.w3.org/Graphics/SVG/1.1/DTD/svg11.dtd">
<svg version="1.1" id="レイヤー_1" xmlns="http://www.w3.org/2000/svg" xmlns:xlink="http://www.w3.org/1999/xlink" x="0px"
	 y="0px" width="66.788px" height="66.786px" viewBox="0 0 66.788 66.786" enable-background="new 0 0 66.788 66.786"
	 xml:space="preserve">
<polygon fill="#D71718" points="66.788,33.393 62.516,38.009 65.162,43.714 59.668,46.778 60.412,53.023 54.24,54.239 53.025,60.41 
	46.779,59.667 43.716,65.16 38.009,62.515 33.393,66.786 28.779,62.515 23.072,65.16 20.008,59.667 13.764,60.41 12.548,54.239 
	6.377,53.023 7.121,46.778 1.627,43.714 4.272,38.009 0,33.393 4.272,28.778 1.627,23.071 7.121,20.008 6.377,13.763 12.548,12.547 
	13.764,6.376 20.008,7.119 23.072,1.626 28.779,4.271 33.393,0 38.009,4.271 43.715,1.626 46.779,7.119 53.025,6.376 54.24,12.547 
	60.412,13.763 59.668,20.008 65.162,23.071 62.516,28.777 "/>
</svg>
